<mxfile host="app.diagrams.net" agent="Mozilla/5.0 (Windows NT 10.0; Win64; x64) AppleWebKit/537.36 (KHTML, like Gecko) Chrome/131.0.0.0 Safari/537.36" version="26.0.3">
  <diagram name="Página-1" id="H9xxnCubIdYvpN8B5B1x">
    <mxGraphModel dx="864" dy="525" grid="1" gridSize="10" guides="1" tooltips="1" connect="1" arrows="1" fold="1" page="1" pageScale="1" pageWidth="827" pageHeight="1169" math="0" shadow="0">
      <root>
        <mxCell id="0" />
        <mxCell id="1" parent="0" />
        <mxCell id="eWJj239-0Y_qC9O36NSM-1" value="Inicio" style="strokeWidth=2;html=1;shape=mxgraph.flowchart.start_2;whiteSpace=wrap;" vertex="1" parent="1">
          <mxGeometry x="364" y="20" width="100" height="90" as="geometry" />
        </mxCell>
        <mxCell id="eWJj239-0Y_qC9O36NSM-2" value="Fim" style="strokeWidth=2;html=1;shape=mxgraph.flowchart.start_2;whiteSpace=wrap;" vertex="1" parent="1">
          <mxGeometry x="364" y="880" width="100" height="100" as="geometry" />
        </mxCell>
        <mxCell id="eWJj239-0Y_qC9O36NSM-3" value="Nome" style="html=1;strokeWidth=2;shape=manualInput;whiteSpace=wrap;rounded=1;size=26;arcSize=11;" vertex="1" parent="1">
          <mxGeometry x="364" y="140" width="100" height="60" as="geometry" />
        </mxCell>
        <mxCell id="eWJj239-0Y_qC9O36NSM-4" value="Nota 1" style="html=1;strokeWidth=2;shape=manualInput;whiteSpace=wrap;rounded=1;size=26;arcSize=11;" vertex="1" parent="1">
          <mxGeometry x="364" y="220" width="100" height="60" as="geometry" />
        </mxCell>
        <mxCell id="eWJj239-0Y_qC9O36NSM-11" style="edgeStyle=orthogonalEdgeStyle;rounded=0;orthogonalLoop=1;jettySize=auto;html=1;exitX=0.5;exitY=1;exitDx=0;exitDy=0;entryX=0.5;entryY=0;entryDx=0;entryDy=0;" edge="1" parent="1" source="eWJj239-0Y_qC9O36NSM-5" target="eWJj239-0Y_qC9O36NSM-6">
          <mxGeometry relative="1" as="geometry" />
        </mxCell>
        <mxCell id="eWJj239-0Y_qC9O36NSM-5" value="Nota 2" style="html=1;strokeWidth=2;shape=manualInput;whiteSpace=wrap;rounded=1;size=26;arcSize=11;" vertex="1" parent="1">
          <mxGeometry x="364" y="290" width="100" height="60" as="geometry" />
        </mxCell>
        <mxCell id="eWJj239-0Y_qC9O36NSM-6" value="Media = (Nota1 + Nota2) / 2" style="rounded=1;whiteSpace=wrap;html=1;absoluteArcSize=1;arcSize=14;strokeWidth=2;" vertex="1" parent="1">
          <mxGeometry x="300" y="370" width="230" height="40" as="geometry" />
        </mxCell>
        <mxCell id="eWJj239-0Y_qC9O36NSM-7" value="Nome&lt;br&gt;Nota1&lt;br&gt;Nota2&lt;br&gt;Media" style="strokeWidth=2;html=1;shape=mxgraph.flowchart.display;whiteSpace=wrap;" vertex="1" parent="1">
          <mxGeometry x="364" y="430" width="100" height="80" as="geometry" />
        </mxCell>
        <mxCell id="eWJj239-0Y_qC9O36NSM-8" style="edgeStyle=orthogonalEdgeStyle;rounded=0;orthogonalLoop=1;jettySize=auto;html=1;entryX=0.5;entryY=0.233;entryDx=0;entryDy=0;entryPerimeter=0;" edge="1" parent="1" source="eWJj239-0Y_qC9O36NSM-1" target="eWJj239-0Y_qC9O36NSM-3">
          <mxGeometry relative="1" as="geometry" />
        </mxCell>
        <mxCell id="eWJj239-0Y_qC9O36NSM-9" style="edgeStyle=orthogonalEdgeStyle;rounded=0;orthogonalLoop=1;jettySize=auto;html=1;exitX=0.5;exitY=1;exitDx=0;exitDy=0;entryX=0.49;entryY=0.183;entryDx=0;entryDy=0;entryPerimeter=0;" edge="1" parent="1" source="eWJj239-0Y_qC9O36NSM-3" target="eWJj239-0Y_qC9O36NSM-4">
          <mxGeometry relative="1" as="geometry" />
        </mxCell>
        <mxCell id="eWJj239-0Y_qC9O36NSM-10" style="edgeStyle=orthogonalEdgeStyle;rounded=0;orthogonalLoop=1;jettySize=auto;html=1;exitX=0.5;exitY=1;exitDx=0;exitDy=0;entryX=0.49;entryY=0.267;entryDx=0;entryDy=0;entryPerimeter=0;" edge="1" parent="1" source="eWJj239-0Y_qC9O36NSM-4" target="eWJj239-0Y_qC9O36NSM-5">
          <mxGeometry relative="1" as="geometry" />
        </mxCell>
        <mxCell id="eWJj239-0Y_qC9O36NSM-12" style="edgeStyle=orthogonalEdgeStyle;rounded=0;orthogonalLoop=1;jettySize=auto;html=1;exitX=0.5;exitY=1;exitDx=0;exitDy=0;entryX=0.5;entryY=0;entryDx=0;entryDy=0;entryPerimeter=0;" edge="1" parent="1" source="eWJj239-0Y_qC9O36NSM-6" target="eWJj239-0Y_qC9O36NSM-7">
          <mxGeometry relative="1" as="geometry" />
        </mxCell>
        <mxCell id="eWJj239-0Y_qC9O36NSM-18" style="edgeStyle=orthogonalEdgeStyle;rounded=0;orthogonalLoop=1;jettySize=auto;html=1;entryX=0.5;entryY=0;entryDx=0;entryDy=0;entryPerimeter=0;" edge="1" parent="1" source="eWJj239-0Y_qC9O36NSM-15" target="eWJj239-0Y_qC9O36NSM-17">
          <mxGeometry relative="1" as="geometry">
            <mxPoint x="550" y="580" as="targetPoint" />
          </mxGeometry>
        </mxCell>
        <mxCell id="eWJj239-0Y_qC9O36NSM-20" style="edgeStyle=orthogonalEdgeStyle;rounded=0;orthogonalLoop=1;jettySize=auto;html=1;entryX=0.5;entryY=0;entryDx=0;entryDy=0;entryPerimeter=0;" edge="1" parent="1" source="eWJj239-0Y_qC9O36NSM-15" target="eWJj239-0Y_qC9O36NSM-19">
          <mxGeometry relative="1" as="geometry">
            <mxPoint x="280" y="580" as="targetPoint" />
          </mxGeometry>
        </mxCell>
        <mxCell id="eWJj239-0Y_qC9O36NSM-15" value="Media &amp;gt;= 7" style="strokeWidth=2;html=1;shape=mxgraph.flowchart.decision;whiteSpace=wrap;" vertex="1" parent="1">
          <mxGeometry x="365" y="530" width="100" height="100" as="geometry" />
        </mxCell>
        <mxCell id="eWJj239-0Y_qC9O36NSM-17" value="Aprovado" style="strokeWidth=2;html=1;shape=mxgraph.flowchart.display;whiteSpace=wrap;" vertex="1" parent="1">
          <mxGeometry x="500" y="620" width="100" height="60" as="geometry" />
        </mxCell>
        <mxCell id="eWJj239-0Y_qC9O36NSM-25" style="edgeStyle=orthogonalEdgeStyle;rounded=0;orthogonalLoop=1;jettySize=auto;html=1;entryX=0.5;entryY=0;entryDx=0;entryDy=0;entryPerimeter=0;" edge="1" parent="1" source="eWJj239-0Y_qC9O36NSM-19" target="eWJj239-0Y_qC9O36NSM-24">
          <mxGeometry relative="1" as="geometry">
            <mxPoint x="170" y="650" as="targetPoint" />
          </mxGeometry>
        </mxCell>
        <mxCell id="eWJj239-0Y_qC9O36NSM-19" value="Media &amp;gt;= 2 e Media &amp;lt; 7" style="strokeWidth=2;html=1;shape=mxgraph.flowchart.decision;whiteSpace=wrap;" vertex="1" parent="1">
          <mxGeometry x="230" y="600" width="100" height="100" as="geometry" />
        </mxCell>
        <mxCell id="eWJj239-0Y_qC9O36NSM-21" value="Recuperação" style="strokeWidth=2;html=1;shape=mxgraph.flowchart.display;whiteSpace=wrap;" vertex="1" parent="1">
          <mxGeometry x="340" y="690" width="100" height="60" as="geometry" />
        </mxCell>
        <mxCell id="eWJj239-0Y_qC9O36NSM-23" style="edgeStyle=orthogonalEdgeStyle;rounded=0;orthogonalLoop=1;jettySize=auto;html=1;exitX=1;exitY=0.5;exitDx=0;exitDy=0;exitPerimeter=0;entryX=0.7;entryY=0;entryDx=0;entryDy=0;entryPerimeter=0;" edge="1" parent="1" source="eWJj239-0Y_qC9O36NSM-19" target="eWJj239-0Y_qC9O36NSM-21">
          <mxGeometry relative="1" as="geometry" />
        </mxCell>
        <mxCell id="eWJj239-0Y_qC9O36NSM-37" style="edgeStyle=orthogonalEdgeStyle;rounded=0;orthogonalLoop=1;jettySize=auto;html=1;exitX=0.5;exitY=1;exitDx=0;exitDy=0;exitPerimeter=0;" edge="1" parent="1" source="eWJj239-0Y_qC9O36NSM-24" target="eWJj239-0Y_qC9O36NSM-34">
          <mxGeometry relative="1" as="geometry" />
        </mxCell>
        <mxCell id="eWJj239-0Y_qC9O36NSM-24" value="Reprovado" style="strokeWidth=2;html=1;shape=mxgraph.flowchart.display;whiteSpace=wrap;" vertex="1" parent="1">
          <mxGeometry x="110" y="690" width="100" height="60" as="geometry" />
        </mxCell>
        <mxCell id="eWJj239-0Y_qC9O36NSM-39" style="edgeStyle=orthogonalEdgeStyle;rounded=0;orthogonalLoop=1;jettySize=auto;html=1;exitX=0.5;exitY=1;exitDx=0;exitDy=0;exitPerimeter=0;" edge="1" parent="1" source="eWJj239-0Y_qC9O36NSM-26" target="eWJj239-0Y_qC9O36NSM-2">
          <mxGeometry relative="1" as="geometry" />
        </mxCell>
        <mxCell id="eWJj239-0Y_qC9O36NSM-26" value="" style="strokeWidth=2;html=1;shape=mxgraph.flowchart.terminator;whiteSpace=wrap;" vertex="1" parent="1">
          <mxGeometry x="364" y="790" width="100" height="60" as="geometry" />
        </mxCell>
        <mxCell id="eWJj239-0Y_qC9O36NSM-27" style="edgeStyle=orthogonalEdgeStyle;rounded=0;orthogonalLoop=1;jettySize=auto;html=1;exitX=0.5;exitY=1;exitDx=0;exitDy=0;exitPerimeter=0;entryX=0.99;entryY=0.633;entryDx=0;entryDy=0;entryPerimeter=0;" edge="1" parent="1" source="eWJj239-0Y_qC9O36NSM-17" target="eWJj239-0Y_qC9O36NSM-26">
          <mxGeometry relative="1" as="geometry" />
        </mxCell>
        <mxCell id="eWJj239-0Y_qC9O36NSM-33" style="edgeStyle=orthogonalEdgeStyle;rounded=0;orthogonalLoop=1;jettySize=auto;html=1;exitX=0.5;exitY=1;exitDx=0;exitDy=0;exitPerimeter=0;entryX=0.65;entryY=-0.067;entryDx=0;entryDy=0;entryPerimeter=0;" edge="1" parent="1" source="eWJj239-0Y_qC9O36NSM-21" target="eWJj239-0Y_qC9O36NSM-34">
          <mxGeometry relative="1" as="geometry" />
        </mxCell>
        <mxCell id="eWJj239-0Y_qC9O36NSM-38" style="edgeStyle=orthogonalEdgeStyle;rounded=0;orthogonalLoop=1;jettySize=auto;html=1;" edge="1" parent="1" source="eWJj239-0Y_qC9O36NSM-34">
          <mxGeometry relative="1" as="geometry">
            <mxPoint x="360" y="820" as="targetPoint" />
          </mxGeometry>
        </mxCell>
        <mxCell id="eWJj239-0Y_qC9O36NSM-34" value="" style="strokeWidth=2;html=1;shape=mxgraph.flowchart.terminator;whiteSpace=wrap;" vertex="1" parent="1">
          <mxGeometry x="210" y="790" width="100" height="60" as="geometry" />
        </mxCell>
      </root>
    </mxGraphModel>
  </diagram>
</mxfile>
